<svg xmlns="http://www.w3.org/2000/svg" viewBox="0 0 512 512">
  <defs>
    <linearGradient id="bg" x1="54" y1="52" x2="458" y2="456" gradientUnits="userSpaceOnUse">
      <stop offset="0" stop-color="#f9a8d4"/>
      <stop offset="0.48" stop-color="#fb7185"/>
      <stop offset="1" stop-color="#fbbf24"/>
    </linearGradient>
    <linearGradient id="paper" x1="118" y1="90" x2="394" y2="428" gradientUnits="userSpaceOnUse">
      <stop offset="0" stop-color="#ffffff"/>
      <stop offset="1" stop-color="#fff7ed"/>
    </linearGradient>
    <filter id="shadow" x="58" y="50" width="396" height="420" filterUnits="userSpaceOnUse">
      <feDropShadow dx="0" dy="18" stdDeviation="18" flood-color="#7f1d1d" flood-opacity="0.20"/>
    </filter>
  </defs>
  <rect width="512" height="512" rx="88" fill="url(#bg)"/>
  <circle cx="110" cy="104" r="46" fill="#ffffff" opacity="0.18"/>
  <circle cx="414" cy="126" r="36" fill="#ffffff" opacity="0.18"/>
  <circle cx="428" cy="410" r="66" fill="#ffffff" opacity="0.14"/>
  <g filter="url(#shadow)">
    <rect x="104" y="82" width="304" height="352" rx="36" fill="url(#paper)"/>
  </g>
  <rect x="104" y="82" width="304" height="86" rx="36" fill="#3b82f6"/>
  <path d="M104 132h304v50H104z" fill="#3b82f6"/>
  <circle cx="164" cy="82" r="18" fill="#bfdbfe"/>
  <circle cx="348" cy="82" r="18" fill="#bfdbfe"/>
  <rect x="154" y="58" width="20" height="54" rx="10" fill="#1d4ed8"/>
  <rect x="338" y="58" width="20" height="54" rx="10" fill="#1d4ed8"/>
  <text x="256" y="145" text-anchor="middle" font-family="Arial, sans-serif" font-size="42" font-weight="800" fill="#ffffff">MAY</text>
  <text x="256" y="292" text-anchor="middle" font-family="Arial, sans-serif" font-size="126" font-weight="900" fill="#111827">20</text>
  <rect x="166" y="322" width="180" height="44" rx="22" fill="#dbeafe"/>
  <circle cx="206" cy="344" r="20" fill="#fbbf24"/>
  <path d="M230 354c8-24 44-27 55-4 18-2 33 8 33 23 0 16-14 27-32 27h-70c-19 0-32-11-32-27 0-14 11-23 28-24 4 0 8 1 18 5z" fill="#ffffff"/>
  <rect x="168" y="388" width="176" height="16" rx="8" fill="#fde68a"/>
</svg>
