<svg xmlns="http://www.w3.org/2000/svg" viewBox="0 0 512 512">
  <defs>
    <linearGradient id="bg" x1="54" y1="54" x2="458" y2="458" gradientUnits="userSpaceOnUse">
      <stop offset="0" stop-color="#7dd3fc"/>
      <stop offset="0.52" stop-color="#60a5fa"/>
      <stop offset="1" stop-color="#8b5cf6"/>
    </linearGradient>
    <linearGradient id="card" x1="110" y1="86" x2="402" y2="426" gradientUnits="userSpaceOnUse">
      <stop offset="0" stop-color="#ffffff"/>
      <stop offset="1" stop-color="#eef6ff"/>
    </linearGradient>
    <filter id="shadow" x="60" y="44" width="392" height="420" filterUnits="userSpaceOnUse">
      <feDropShadow dx="0" dy="18" stdDeviation="18" flood-color="#31528f" flood-opacity="0.22"/>
    </filter>
  </defs>
  <rect width="512" height="512" rx="88" fill="url(#bg)"/>
  <circle cx="104" cy="104" r="44" fill="#ffffff" opacity="0.18"/>
  <circle cx="424" cy="84" r="28" fill="#ffffff" opacity="0.18"/>
  <circle cx="438" cy="416" r="62" fill="#ffffff" opacity="0.12"/>
  <g filter="url(#shadow)">
    <rect x="102" y="78" width="308" height="352" rx="34" fill="url(#card)"/>
  </g>
  <rect x="144" y="118" width="224" height="36" rx="18" fill="#dbeafe"/>
  <circle cx="174" cy="136" r="10" fill="#3b82f6"/>
  <circle cx="338" cy="136" r="10" fill="#3b82f6"/>
  <rect x="142" y="192" width="78" height="66" rx="18" fill="#fff1c7"/>
  <rect x="236" y="192" width="134" height="22" rx="11" fill="#60a5fa"/>
  <rect x="236" y="226" width="104" height="18" rx="9" fill="#bfdbfe"/>
  <path d="M162 224l18 18 34-42" fill="none" stroke="#f59e0b" stroke-width="15" stroke-linecap="round" stroke-linejoin="round"/>
  <rect x="142" y="286" width="78" height="66" rx="18" fill="#d1fae5"/>
  <rect x="236" y="286" width="126" height="22" rx="11" fill="#14b8a6"/>
  <rect x="236" y="320" width="86" height="18" rx="9" fill="#99f6e4"/>
  <path d="M162 318l18 18 34-42" fill="none" stroke="#0f766e" stroke-width="15" stroke-linecap="round" stroke-linejoin="round"/>
  <rect x="142" y="374" width="228" height="18" rx="9" fill="#e0e7ff"/>
</svg>
